<svg width="30" height="30" viewBox="0 0 30 30" fill="none" xmlns="http://www.w3.org/2000/svg">
<path d="M9.9375 9.75H3.1875C2.78968 9.75 2.40814 9.59196 2.12684 9.31066C1.84554 9.02936 1.6875 8.64782 1.6875 8.25V1.5C1.6875 1.10218 1.84554 0.720644 2.12684 0.43934C2.40814 0.158035 2.78968 0 3.1875 0C3.58532 0 3.96686 0.158035 4.24816 0.43934C4.52946 0.720644 4.6875 1.10218 4.6875 1.5V6.75H9.9375C10.3353 6.75 10.7169 6.90804 10.9982 7.18934C11.2795 7.47064 11.4375 7.85218 11.4375 8.25C11.4375 8.64782 11.2795 9.02936 10.9982 9.31066C10.7169 9.59196 10.3353 9.75 9.9375 9.75Z" fill="#FCBF1B"/>
<path d="M28.4996 16.5C28.1018 16.5 27.7203 16.3419 27.439 16.0606C27.1576 15.7793 26.9996 15.3978 26.9996 15C27.0008 12.3593 26.1303 9.79204 24.5233 7.69663C22.9162 5.60122 20.6625 4.09481 18.1119 3.41116C15.5612 2.7275 12.8562 2.90484 10.4166 3.91564C7.97706 4.92644 5.93931 6.71419 4.61961 9.00147C4.4203 9.34579 4.09237 9.59683 3.70797 9.69936C3.32357 9.8019 2.91418 9.74753 2.56986 9.54822C2.22554 9.34891 1.9745 9.02098 1.87197 8.63658C1.76943 8.25218 1.8238 7.84279 2.02311 7.49847C3.67349 4.63983 6.22114 2.40574 9.27083 1.1428C12.3205 -0.120138 15.7018 -0.341325 18.89 0.513552C22.0782 1.36843 24.8952 3.25158 26.9039 5.87086C28.9126 8.49014 30.0008 11.6991 29.9996 15C29.9996 15.3978 29.8416 15.7793 29.5603 16.0606C29.279 16.3419 28.8974 16.5 28.4996 16.5ZM26.8121 30C26.4143 30 26.0328 29.8419 25.7514 29.5606C25.4701 29.2793 25.3121 28.8978 25.3121 28.5V23.25H20.0621C19.6643 23.25 19.2828 23.0919 19.0015 22.8106C18.7201 22.5293 18.5621 22.1478 18.5621 21.75C18.5621 21.3521 18.7201 20.9706 19.0015 20.6893C19.2828 20.408 19.6643 20.25 20.0621 20.25H26.8121C27.2099 20.25 27.5915 20.408 27.8728 20.6893C28.1541 20.9706 28.3121 21.3521 28.3121 21.75V28.5C28.3121 28.8978 28.1541 29.2793 27.8728 29.5606C27.5915 29.8419 27.2099 30 26.8121 30Z" fill="#FCBF1B"/>
<path d="M15 30C11.0232 29.9952 7.21067 28.4134 4.39866 25.6013C1.58665 22.7893 0.00476357 18.9768 0 15C0 14.6022 0.158035 14.2206 0.43934 13.9393C0.720644 13.658 1.10218 13.5 1.5 13.5C1.89782 13.5 2.27936 13.658 2.56066 13.9393C2.84196 14.2206 3 14.6022 3 15C2.99886 17.6407 3.86934 20.2079 5.47636 22.3033C7.08338 24.3987 9.33708 25.9052 11.8877 26.5888C14.4384 27.2725 17.1434 27.0951 19.583 26.0843C22.0226 25.0735 24.0603 23.2858 25.38 20.9985C25.4787 20.828 25.61 20.6786 25.7664 20.5589C25.9228 20.4391 26.1013 20.3514 26.2916 20.3006C26.482 20.2498 26.6804 20.2371 26.8757 20.263C27.071 20.2889 27.2593 20.3531 27.4298 20.4517C27.6002 20.5504 27.7496 20.6817 27.8694 20.8382C27.9891 20.9946 28.0769 21.1731 28.1276 21.3634C28.1784 21.5537 28.1912 21.7522 28.1653 21.9475C28.1393 22.1428 28.0752 22.331 27.9765 22.5015C26.6573 24.7762 24.765 26.6655 22.4882 27.9812C20.2114 29.2968 17.6296 29.9929 15 30Z" fill="#FCBF1B"/>
</svg>
