<svg width="31" height="30" viewBox="0 0 31 30" fill="none" xmlns="http://www.w3.org/2000/svg">
<path d="M22.2037 0.383559C20.8741 -0.127853 19.4021 -0.127853 18.0725 0.383559L11.4346 2.93631C10.8917 3.14491 10.4248 3.51316 10.0954 3.99251C9.76602 4.47186 9.58966 5.03978 9.58958 5.62139V7.7311C10.8455 7.57269 12.1211 7.72753 13.3027 8.18181L19.9387 10.7365C20.8436 11.0839 21.6221 11.6975 22.1713 12.4963C22.7205 13.2951 23.0146 14.2416 23.015 15.211V24.3786C23.015 24.7638 22.9687 25.1476 22.8769 25.5217L28.8435 23.2279C29.3865 23.0193 29.8534 22.651 30.1828 22.1717C30.5121 21.6923 30.6885 21.1244 30.6886 20.5428V5.62139C30.6885 5.03978 30.5121 4.47186 30.1828 3.99251C29.8534 3.51316 29.3865 3.14491 28.8435 2.93631L22.2056 0.383559H22.2037ZM25.7864 4.51475C25.904 4.46954 26.0294 4.44794 26.1553 4.45118C26.2813 4.45443 26.4054 4.48245 26.5205 4.53365C26.6357 4.58485 26.7396 4.65823 26.8264 4.7496C26.9132 4.84097 26.9811 4.94853 27.0263 5.06615C27.0715 5.18377 27.0931 5.30915 27.0899 5.43511C27.0866 5.56108 27.0586 5.68518 27.0074 5.80032C26.9562 5.91546 26.8828 6.01938 26.7915 6.10616C26.7001 6.19294 26.5925 6.26088 26.4749 6.30608L21.17 8.34483C20.5052 8.60053 19.7692 8.60053 19.1044 8.34483L13.7994 6.30608C13.5619 6.21453 13.3704 6.03235 13.2672 5.79964C13.164 5.56693 13.1574 5.30274 13.249 5.06519C13.3405 4.82765 13.5227 4.6362 13.7554 4.53297C13.9881 4.42975 14.2523 4.42319 14.4899 4.51475L19.7929 6.55541C20.0151 6.64114 20.2612 6.64114 20.4833 6.55541L25.7864 4.51475ZM8.48294 9.97314C9.81253 9.46173 11.2846 9.46173 12.6141 9.97314L19.252 12.5259C20.3644 12.9536 21.0952 14.0219 21.0952 15.211V24.3786C21.0952 24.96 20.9192 25.5278 20.5901 26.0071C20.2611 26.4864 19.7946 26.8548 19.252 27.0637L12.6141 29.6164C11.2846 30.1279 9.81253 30.1279 8.48294 29.6164L1.84504 27.0656C1.30213 26.857 0.835194 26.4888 0.505814 26.0094C0.176434 25.5301 7.699e-05 24.9621 0 24.3805V15.2129C7.699e-05 14.6313 0.176434 14.0634 0.505814 13.584C0.835194 13.1047 1.30213 12.7364 1.84504 12.5278L8.48103 9.97506L8.48294 9.97314ZM17.4358 15.5639C17.3444 15.3266 17.1626 15.1354 16.9302 15.0322C16.6979 14.9289 16.4341 14.9222 16.1968 15.0134L10.5485 17.1864L4.89836 15.0134C4.78013 14.9645 4.6533 14.9397 4.52534 14.9406C4.39739 14.9414 4.27089 14.9678 4.15331 15.0183C4.03573 15.0688 3.92945 15.1423 3.84071 15.2345C3.75198 15.3267 3.68259 15.4357 3.63664 15.5551C3.59069 15.6745 3.5691 15.8019 3.57315 15.9298C3.5772 16.0577 3.60681 16.1835 3.66022 16.2998C3.71364 16.4161 3.78978 16.5205 3.88417 16.6069C3.97856 16.6933 4.08929 16.7599 4.20983 16.8028L9.58958 18.8723V23.6479C9.58958 23.9022 9.69061 24.1461 9.87045 24.326C10.0503 24.5058 10.2942 24.6068 10.5485 24.6068C10.8029 24.6068 11.0468 24.5058 11.2266 24.326C11.4065 24.1461 11.5075 23.9022 11.5075 23.6479V18.8723L16.8853 16.8028C17.1226 16.7115 17.3138 16.5296 17.417 16.2973C17.5203 16.065 17.527 15.8012 17.4358 15.5639Z" fill="#FCBF1B"/>
</svg>
