<svg width="32" height="32" viewBox="0 0 32 32" fill="none" xmlns="http://www.w3.org/2000/svg">
<path d="M31.5322 5.26584C31.5279 5.12877 31.488 4.99519 31.4164 4.87822C31.3448 4.76126 31.2441 4.66492 31.124 4.5987C31.0039 4.53247 30.8687 4.49862 30.7315 4.50048C30.5944 4.50234 30.4601 4.53985 30.3419 4.60931C29.2711 5.23397 27.6043 6.04028 26.1303 6.04028C25.4594 6.04028 24.7774 5.9383 24.0762 5.72477C23.6352 5.59342 23.2048 5.42881 22.7887 5.23237C20.6566 4.21412 18.6982 2.41665 16.8991 0.628742C16.6023 0.336267 16.2035 0.170567 15.7868 0.166626C15.3702 0.170567 14.9714 0.336267 14.6746 0.628742C12.8755 2.41665 10.9171 4.21412 8.78498 5.23237H8.78339C8.36792 5.42906 7.93802 5.59367 7.49743 5.72477C6.79629 5.9383 6.11268 6.04028 5.44341 6.04028C3.96942 6.04028 2.30261 5.23237 1.23178 4.60931C1.11354 4.53985 0.979264 4.50234 0.842144 4.50048C0.705024 4.49862 0.569779 4.53247 0.449699 4.5987C0.32962 4.66492 0.228838 4.76126 0.157257 4.87822C0.0856762 4.99519 0.0457602 5.12877 0.0414312 5.26584C-0.0557725 7.71664 -0.0812686 12.9784 1.13776 17.1279C3.36707 24.7177 8.27666 29.8377 15.3359 31.9347L15.559 32L15.7821 31.9777V32V31.9777H15.7868L16.0147 32L16.2378 31.9347C23.297 29.8377 28.2066 24.7177 30.4359 17.1279C31.6549 12.9784 31.6279 7.71664 31.5322 5.26584Z" fill="#FCBF1B"/>
</svg>
