<svg width="16" height="16" viewBox="0 0 16 16" fill="none" xmlns="http://www.w3.org/2000/svg">
<path d="M8.92123 4.55398C10.692 4.55398 11.4472 5.30925 11.4472 7.07998H13.1312C13.1312 4.36453 11.6367 2.86998 8.92123 2.86998V4.55398ZM11.8026 9.13699C11.6408 8.98994 11.4282 8.91151 11.2096 8.91827C10.9911 8.92502 10.7837 9.01643 10.6313 9.1732L8.61643 11.2454C8.13143 11.1527 7.1564 10.8488 6.15273 9.84764C5.14906 8.84314 4.8451 7.86557 4.75501 7.38395L6.82549 5.36819C6.98245 5.2159 7.07399 5.00851 7.08075 4.78991C7.08751 4.57132 7.00895 4.35867 6.86169 4.19697L3.7505 0.775917C3.60318 0.613711 3.39844 0.515321 3.17975 0.501643C2.96106 0.487965 2.74565 0.560077 2.57927 0.702663L0.752131 2.26963C0.606558 2.41573 0.51967 2.61018 0.50795 2.81609C0.49532 3.02659 0.254508 8.01292 4.12098 11.8811C7.49404 15.2533 11.7192 15.5 12.8828 15.5C13.0529 15.5 13.1573 15.4949 13.1851 15.4933C13.391 15.4817 13.5854 15.3945 13.7307 15.2482L15.2969 13.4203C15.4396 13.254 15.5118 13.0386 15.4983 12.82C15.4848 12.6013 15.3865 12.3965 15.2245 12.249L11.8026 9.13699Z" fill="black"/>
</svg>
