<svg width="16" height="15" viewBox="0 0 16 15" fill="none" xmlns="http://www.w3.org/2000/svg">
<path d="M14.2815 0H0.937292C0.717715 0 0.507131 0.0872267 0.351866 0.242491C0.196602 0.397756 0.109375 0.60834 0.109375 0.827917V14.1723C0.10943 14.3918 0.196681 14.6024 0.35194 14.7576C0.507198 14.9128 0.717751 15 0.937292 15H8.12125V9.19125H6.16646V6.9275H8.12125V5.25792C8.12125 3.32042 9.30458 2.26562 11.0329 2.26562C11.8608 2.26562 12.5723 2.32708 12.7798 2.35479V4.37958L11.581 4.38021C10.641 4.38021 10.4592 4.82687 10.4592 5.48229V6.92771H12.7008L12.409 9.19146H10.4592V15H14.2817C14.5012 14.9999 14.7117 14.9127 14.867 14.7574C15.0222 14.6022 15.1094 14.3916 15.1094 14.1721V0.827917C15.1094 0.60834 15.0221 0.397756 14.8669 0.242491C14.7116 0.0872267 14.501 0 14.2815 0Z" fill="white"/>
</svg>
