<svg width="16" height="15" viewBox="0 0 16 15" fill="none" xmlns="http://www.w3.org/2000/svg">
<path d="M13.9983 0H1.21667C0.605417 0 0.109375 0.484375 0.109375 1.08083V13.9177C0.109375 14.515 0.605417 15 1.21667 15H13.9983C14.61 15 15.1094 14.515 15.1094 13.9177V1.08083C15.1094 0.484375 14.61 0 13.9983 0ZM4.55813 12.7821H2.33229V5.62396H4.55813V12.7821ZM3.44521 4.64521C3.27579 4.64521 3.10803 4.61182 2.95151 4.54696C2.795 4.48211 2.6528 4.38704 2.53304 4.2672C2.41328 4.14737 2.31831 4.00511 2.25355 3.84855C2.18879 3.69199 2.15552 3.52421 2.15563 3.35479C2.15563 3.0128 2.29148 2.68482 2.5333 2.44299C2.77513 2.20117 3.10311 2.06531 3.4451 2.06531C3.7871 2.06531 4.11508 2.20117 4.3569 2.44299C4.59873 2.68482 4.73458 3.0128 4.73458 3.35479C4.73458 3.69685 4.59877 4.02492 4.357 4.26689C4.11522 4.50886 3.78727 4.64493 3.44521 4.64521ZM12.8906 12.7821H10.6683V9.30125C10.6683 8.47083 10.6521 7.40312 9.51188 7.40312C8.35396 7.40312 8.1775 8.3075 8.1775 9.24104V12.7823H5.95354V5.62396H8.08792V6.60146H8.11833C8.41542 6.03896 9.14125 5.44542 10.2238 5.44542C12.475 5.44542 12.8908 6.9275 12.8908 8.85563V12.7821H12.8906Z" fill="white"/>
</svg>
