<svg width="16" height="15" viewBox="0 0 16 15" fill="none" xmlns="http://www.w3.org/2000/svg">
<path d="M7.61114 0C3.46962 0 0.111328 3.3579 0.111328 7.49981C0.111328 10.5708 1.95796 13.2087 4.60052 14.3687C4.57937 13.8451 4.59648 13.2161 4.73109 12.647C4.87531 12.0378 5.69604 8.56033 5.69604 8.56033C5.69604 8.56033 5.45644 8.08151 5.45644 7.37385C5.45644 6.26256 6.10064 5.43203 6.90252 5.43203C7.5846 5.43203 7.9142 5.94431 7.9142 6.55793C7.9142 7.24367 7.4771 8.26861 7.25212 9.21933C7.06405 10.0153 7.65113 10.6639 8.4359 10.6639C9.85679 10.6639 10.8137 8.83897 10.8137 6.67639C10.8137 5.0332 9.7068 3.80288 7.69325 3.80288C5.41817 3.80288 4.00094 5.49933 4.00094 7.39424C4.00094 8.04805 4.19362 8.5086 4.49553 8.86493C4.63417 9.02896 4.6534 9.09492 4.60321 9.28337C4.56725 9.42125 4.48457 9.75335 4.45053 9.88507C4.40072 10.0751 4.24689 10.1427 4.07497 10.0728C3.02714 9.64489 2.53909 8.49745 2.53909 7.20751C2.53909 5.07685 4.33573 2.52256 7.89901 2.52256C10.7625 2.52256 12.647 4.59457 12.647 6.81927C12.647 9.76085 11.0113 11.9588 8.60032 11.9588C7.79093 11.9588 7.02924 11.5209 6.76829 11.0241C6.76829 11.0241 6.33293 12.7517 6.24082 13.0859C6.08179 13.6641 5.77046 14.2422 5.48586 14.6923C6.17591 14.8964 6.89174 15 7.61133 15C11.7527 14.9996 15.1106 11.6415 15.1106 7.49981C15.1106 3.3579 11.7527 0 7.61114 0Z" fill="white"/>
</svg>
