<svg width="13" height="16" viewBox="0 0 13 16" fill="none" xmlns="http://www.w3.org/2000/svg">
<path d="M1.8877 15.5H10.8877C11.2855 15.5 11.6671 15.342 11.9484 15.0607C12.2297 14.7794 12.3877 14.3978 12.3877 14V2C12.3877 1.60218 12.2297 1.22064 11.9484 0.93934C11.6671 0.658035 11.2855 0.5 10.8877 0.5H1.8877C1.48987 0.5 1.10834 0.658035 0.827035 0.93934C0.545731 1.22064 0.387695 1.60218 0.387695 2V14C0.387695 14.3978 0.545731 14.7794 0.827035 15.0607C1.10834 15.342 1.48987 15.5 1.8877 15.5ZM4.1377 13.25H2.6377V11.75H4.1377V13.25ZM4.1377 10.25H2.6377V8.75H4.1377V10.25ZM4.1377 7.25H2.6377V5.75H4.1377V7.25ZM7.1377 13.25H5.6377V11.75H7.1377V13.25ZM7.1377 10.25H5.6377V8.75H7.1377V10.25ZM7.1377 7.25H5.6377V5.75H7.1377V7.25ZM10.1377 13.25H8.6377V8.75H10.1377V13.25ZM10.1377 7.25H8.6377V5.75H10.1377V7.25ZM1.8877 2H10.8877V4.25H1.8877V2Z" fill="black"/>
</svg>
