<svg width="32" height="32" viewBox="0 0 32 32" fill="none" xmlns="http://www.w3.org/2000/svg">
<path d="M0 2C0 0.895431 0.895431 0 2 0H30C31.1046 0 32 0.895431 32 2V30C32 31.1046 31.1046 32 30 32H2C0.895431 32 0 31.1046 0 30V2Z" fill="#F5F5F5"/>
<path d="M23.5 23.5L19.9584 19.9521M21.9211 15.2105C21.9211 16.9903 21.2141 18.6971 19.9556 19.9556C18.6971 21.2141 16.9903 21.9211 15.2105 21.9211C13.4308 21.9211 11.7239 21.2141 10.4655 19.9556C9.207 18.6971 8.5 16.9903 8.5 15.2105C8.5 13.4308 9.207 11.7239 10.4655 10.4655C11.7239 9.207 13.4308 8.5 15.2105 8.5C16.9903 8.5 18.6971 9.207 19.9556 10.4655C21.2141 11.7239 21.9211 13.4308 21.9211 15.2105V15.2105Z" stroke="#434343" stroke-width="2" stroke-linecap="round"/>
</svg>
