<svg width="16" height="13" viewBox="0 0 16 13" fill="none" xmlns="http://www.w3.org/2000/svg">
<path d="M13.3109 0.882584C13.5715 0.63448 13.9183 0.497317 14.2781 0.50004C14.6379 0.502762 14.9826 0.645157 15.2394 0.897177C15.4962 1.1492 15.6451 1.49113 15.6546 1.85082C15.6641 2.21052 15.5335 2.55984 15.2904 2.82508L7.90891 12.0565C7.78198 12.1933 7.62879 12.303 7.45849 12.3791C7.28819 12.4553 7.10429 12.4963 6.91777 12.4998C6.73126 12.5032 6.54596 12.469 6.37296 12.3992C6.19996 12.3294 6.04281 12.2255 5.91091 12.0935L1.01583 7.19846C0.879508 7.07144 0.770169 6.91826 0.694334 6.74806C0.618499 6.57786 0.577722 6.39413 0.574435 6.20783C0.571148 6.02153 0.605419 5.83648 0.675202 5.66371C0.744986 5.49094 0.848853 5.334 0.980607 5.20225C1.11236 5.07049 1.2693 4.96663 1.44207 4.89684C1.61484 4.82706 1.79989 4.79279 1.98619 4.79608C2.17249 4.79936 2.35622 4.84014 2.52642 4.91598C2.69662 4.99181 2.8498 5.10115 2.97682 5.23747L6.85071 9.10951L13.2757 0.923284C13.2873 0.909041 13.2997 0.895453 13.3127 0.882584H13.3109Z" fill="#EDA71D"/>
</svg>
