<svg width="19" height="15" viewBox="0 0 19 15" fill="none" xmlns="http://www.w3.org/2000/svg">
<path d="M18.9583 1.77576C18.2671 2.08193 17.534 2.2828 16.7834 2.37168C17.5741 1.89859 18.1657 1.15415 18.4482 0.277105C17.705 0.7183 16.8917 1.02898 16.0437 1.19567C15.6893 0.817749 15.2612 0.516623 14.7857 0.310951C14.3102 0.105279 13.7976 -0.00055711 13.2796 2.20535e-06C11.1884 2.20535e-06 9.49266 1.69522 9.49266 3.78691C9.49266 4.08343 9.52622 4.37276 9.59094 4.6501C6.44357 4.49214 3.65336 2.98437 1.78556 0.692999C1.44878 1.27095 1.27182 1.92809 1.27282 2.597C1.27232 3.22049 1.42584 3.83444 1.71974 4.38431C2.01364 4.93418 2.43882 5.40293 2.95749 5.74893C2.35623 5.72983 1.76822 5.56744 1.24238 5.27527C1.2419 5.29109 1.2419 5.30667 1.2419 5.32297C1.2419 7.15722 2.54711 8.68775 4.27924 9.03605C3.7215 9.18704 3.13672 9.20917 2.56916 9.10077C3.05098 10.6049 4.44944 11.7002 6.10654 11.7309C4.76511 12.7836 3.10863 13.3545 1.40346 13.352C1.09783 13.352 0.796519 13.3343 0.5 13.299C2.23149 14.4116 4.24668 15.0021 6.30478 15C13.2702 15 17.0792 9.22997 17.0792 4.2263C17.0792 4.06234 17.0754 3.89862 17.0682 3.73586C17.8099 3.20032 18.45 2.53652 18.9583 1.77576Z" fill="white"/>
</svg>
